# File created by Blade
# Date/Time:  Mon Sep 22 16:09:39 2014
# Frame Rate: 120.000 fps
#------------------------------------------------------
:FULLY-SPECIFIED
:DEGREES
1369
root 2.585915 37.021936 2.274263 1.206745 0.352523 1.752685
RightUpLeg 6.957648 -7.697441 -2.561288
RightLeg -4.631263 -0.000000 0.000000
RightFoot -13.950935 -17.167366 16.351090
RightToeBase 14.420635 -0.000000 -0.000000
LeftUpLeg 3.740211 -1.259514 1.800828
LeftLeg -1.672661 -0.000000 0.000000
LeftFoot -9.520379 12.541828 -16.843843
LeftToeBase 9.573042 -0.000000 -0.000000
Spine -1.257122 4.351194 -0.464760
RightShoulder 7.448537 -25.113059 -7.259239
RightArm 26.857796 -8.336812 80.663865
RightForeArm 105.798727 -0.000000 9.504701
RightHand 4.214811 -0.000000 -28.375324
RightHandThumb1 -24.326973 -0.000000 -32.862282
LeftShoulder -19.966095 37.452410 -2.719558
LeftArm 45.256871 22.406911 -58.574151
LeftForeArm 19.795819 -0.000000 29.967945
LeftHand -13.242371 -0.000000 -10.225883
LeftHandThumb1 -26.253704 0.000000 33.147579
Head 4.894627 -1.401531 6.194634
1370
root 2.589456 37.022210 2.283930 1.094160 0.529930 1.786971
RightUpLeg 7.067230 -7.594588 -2.591974
RightLeg -4.538621 -0.000000 0.000000
RightFoot -14.066963 -17.407253 16.387223
RightToeBase 14.251754 -0.000000 -0.000000
LeftUpLeg 3.810644 -1.279068 1.766012
LeftLeg -1.614788 -0.000000 0.000000
LeftFoot -9.491763 12.414909 -16.816595
LeftToeBase 9.543852 -0.000000 -0.000000
Spine -1.058695 4.022462 -0.447200
RightShoulder 7.476923 -24.906555 -7.316766
RightArm 26.655729 -8.488970 80.783948
RightForeArm 105.207622 -0.000000 8.912784
RightHand 3.105656 -0.000000 -28.872558
RightHandThumb1 -24.326973 -0.000000 -32.862282
LeftShoulder -20.110929 37.708229 -2.800293
LeftArm 45.018719 22.103216 -58.941387
LeftForeArm 19.278433 -0.000000 30.345478
LeftHand -13.514604 -0.000000 -9.883084
LeftHandThumb1 -26.253704 0.000000 33.147579
Head 4.716247 -1.202010 6.154685
1371
root 2.593028 37.021222 2.291979 1.002485 0.693302 1.801381
RightUpLeg 7.147566 -7.549337 -2.604296
RightLeg -4.441162 -0.000000 0.000000
RightFoot -14.186779 -17.599887 16.372287
RightToeBase 14.259028 -0.000000 -0.000000
LeftUpLeg 3.860806 -1.295213 1.752469
LeftLeg -1.553950 -0.000000 0.000000
LeftFoot -9.478073 12.287310 -16.757564
LeftToeBase 9.571753 -0.000000 -0.000000
Spine -0.908677 3.732486 -0.400873
RightShoulder 7.609102 -24.673216 -7.408140
RightArm 26.405303 -8.642047 80.841151
RightForeArm 105.182787 0.000000 8.357672
RightHand 2.129259 -0.000000 -29.852229
RightHandThumb1 -24.326973 -0.000000 -32.862282
LeftShoulder -20.127600 37.969776 -2.782417
LeftArm 44.756378 21.856884 -59.292810
LeftForeArm 18.903322 -0.000000 30.658250
LeftHand -13.554700 -0.000000 -9.572204
LeftHandThumb1 -26.253704 0.000000 33.147579
Head 4.648734 -1.036082 6.072816
1372
root 2.599243 37.019411 2.299622 0.879240 0.824036 1.800992
RightUpLeg 7.255058 -7.577640 -2.620773
RightLeg -4.345534 -0.000000 0.000000
RightFoot -14.259710 -17.674154 16.388519
RightToeBase 14.201264 -0.000000 -0.000000
LeftUpLeg 3.957301 -1.340581 1.745054
LeftLeg -1.514001 -0.000000 0.000000
LeftFoot -9.479438 12.217745 -16.695590
LeftToeBase 9.524369 -0.000000 -0.000000
Spine -0.729764 3.443520 -0.320990
RightShoulder 7.856896 -24.475259 -7.556316
RightArm 26.139540 -8.708298 80.909077
RightForeArm 105.553178 -0.000000 8.018076
RightHand 1.813498 -0.000000 -30.788816
RightHandThumb1 -24.326973 -0.000000 -32.862282
LeftShoulder -20.084358 38.186938 -2.717256
LeftArm 44.473450 21.722982 -59.579868
LeftForeArm 18.373565 0.000000 30.934805
LeftHand -13.617187 0.000000 -9.293376
LeftHandThumb1 -26.253704 0.000000 33.147579
Head 4.660885 -0.851753 5.946705
1373
root 2.609896 37.016802 2.310887 0.717751 0.928896 1.819792
RightUpLeg 7.445986 -7.239574 -2.637754
RightLeg -4.324776 -0.000000 0.000000
RightFoot -14.417728 -18.082070 16.442969
RightToeBase 14.183428 -0.000000 -0.000000
LeftUpLeg 4.117500 -1.366981 1.710878
LeftLeg -1.504047 -0.000000 0.000000
LeftFoot -9.471576 12.147256 -16.626078
LeftToeBase 9.496103 -0.000000 -0.000000
Spine -0.521156 3.208157 -0.259304
RightShoulder 8.115983 -24.339617 -7.704963
RightArm 25.846163 -8.583428 81.024099
RightForeArm 105.706247 -0.000000 7.911098
RightHand 1.507320 -0.000000 -31.978985
RightHandThumb1 -24.326973 -0.000000 -32.862282
LeftShoulder -20.008509 38.378475 -2.603437
LeftArm 44.299568 21.718723 -59.734174
LeftForeArm 17.764809 0.000000 31.060902
LeftHand -13.690686 -0.000000 -8.837229
LeftHandThumb1 -26.253704 0.000000 33.147579
Head 4.757762 -0.702968 5.847478
1374
root 2.615350 37.014292 2.316840 0.602129 0.970441 1.804902
RightUpLeg 7.533904 -7.318932 -2.648722
RightLeg -4.239988 -0.000000 0.000000
RightFoot -14.458124 -18.048344 16.417929
RightToeBase 14.196134 -0.000000 -0.000000
LeftUpLeg 4.232147 -1.384348 1.719311
LeftLeg -1.494389 -0.000000 0.000000
LeftFoot -9.509671 12.107417 -16.626384
LeftToeBase 9.581343 -0.000000 -0.000000
Spine -0.359397 3.139834 -0.169114
RightShoulder 8.259991 -24.282032 -7.814951
RightArm 25.565824 -8.330159 81.189810
RightForeArm 105.501784 -0.000000 7.928535
RightHand 1.650626 -0.000000 -32.827395
RightHandThumb1 -24.326973 -0.000000 -32.862282
LeftShoulder -19.804604 38.506883 -2.399358
LeftArm 44.197221 21.856487 -59.711059
LeftForeArm 17.227962 -0.000000 31.079591
LeftHand -13.612250 0.000000 -8.658629
LeftHandThumb1 -26.253704 0.000000 33.147579
Head 4.855906 -0.662542 5.745755
1375
root 2.616661 37.012022 2.324631 0.492457 0.985414 1.777820
RightUpLeg 7.628121 -7.528709 -2.652277
RightLeg -4.184216 -0.000000 0.000000
RightFoot -14.427856 -17.896547 16.346884
RightToeBase 14.122537 -0.000000 -0.000000
LeftUpLeg 4.358106 -1.397878 1.749116
LeftLeg -1.503624 -0.000000 0.000000
LeftFoot -9.519515 12.068123 -16.602942
LeftToeBase 9.506550 -0.000000 -0.000000
Spine -0.207099 3.147396 -0.087240
RightShoulder 8.305623 -24.325573 -7.873627
RightArm 25.370454 -8.033314 81.318198
RightForeArm 104.889602 0.000000 7.971274
RightHand 1.454469 -0.000000 -33.005644
RightHandThumb1 -24.326973 -0.000000 -32.862282
LeftShoulder -19.606469 38.636646 -2.209632
LeftArm 44.243045 22.127018 -59.413665
LeftForeArm 16.675455 -0.000000 31.070478
LeftHand -13.690563 -0.000000 -8.602050
LeftHandThumb1 -26.253704 0.000000 33.147579
Head 4.920992 -0.678572 5.686338
1376
root 2.620367 37.010479 2.333036 0.370168 0.960013 1.757633
RightUpLeg 7.745702 -7.634098 -2.668080
RightLeg -4.155825 -0.000000 0.000000
RightFoot -14.404648 -17.764682 16.312751
RightToeBase 14.078081 -0.000000 -0.000000
LeftUpLeg 4.509503 -1.411274 1.763974
LeftLeg -1.525507 -0.000000 0.000000
LeftFoot -9.545848 12.062520 -16.630800
LeftToeBase 9.525763 -0.000000 -0.000000
Spine -0.031935 3.222655 -0.009312
RightShoulder 8.315061 -24.427230 -7.916625
RightArm 25.228389 -7.739378 81.429366
RightForeArm 104.321355 -0.000000 8.125083
RightHand 1.695362 -0.000000 -33.188137
RightHandThumb1 -24.326973 -0.000000 -32.862282
LeftShoulder -19.423069 38.688929 -2.035791
LeftArm 44.381435 22.459510 -59.007228
LeftForeArm 16.284936 0.000000 30.922971
LeftHand -13.654188 0.000000 -8.698881
LeftHandThumb1 -26.253704 0.000000 33.147579
Head 4.978279 -0.742500 5.650235
1377
root 2.627895 37.009876 2.339294 0.254036 0.915112 1.735940
RightUpLeg 7.865764 -7.678338 -2.681765
RightLeg -4.158480 -0.000000 0.000000
RightFoot -14.364962 -17.692989 16.294733
RightToeBase 14.128846 -0.000000 -0.000000
LeftUpLeg 4.660278 -1.452700 1.767468
LeftLeg -1.559751 -0.000000 0.000000
LeftFoot -9.580758 12.127112 -16.642597
LeftToeBase 9.530930 -0.000000 -0.000000
Spine 0.146212 3.324630 0.089920
RightShoulder 8.334135 -24.525887 -7.977937
RightArm 25.057007 -7.429147 81.512665
RightForeArm 103.470091 -0.000000 8.348878
RightHand 1.648954 -0.000000 -33.035985
RightHandThumb1 -24.326973 -0.000000 -32.862282
LeftShoulder -19.254305 38.679347 -1.913990
LeftArm 44.557858 22.843024 -58.493569
LeftForeArm 16.054151 0.000000 30.734445
LeftHand -13.475716 -0.000000 -8.910579
LeftHandThumb1 -26.253704 0.000000 33.147579
Head 5.004636 -0.807487 5.571866
1378
root 2.631610 37.008864 2.350181 0.137290 0.866468 1.722984
RightUpLeg 8.009991 -7.627377 -2.692638
RightLeg -4.188197 -0.000000 0.000000
RightFoot -14.383921 -17.673564 16.351193
RightToeBase 14.136045 -0.000000 -0.000000
LeftUpLeg 4.821694 -1.484360 1.769743
LeftLeg -1.595946 -0.000000 0.000000
LeftFoot -9.604888 12.178705 -16.645617
LeftToeBase 9.548960 -0.000000 -0.000000
Spine 0.314014 3.429774 0.155300
RightShoulder 8.328402 -24.658575 -8.009547
RightArm 24.953347 -7.134039 81.593274
RightForeArm 102.832420 -0.000000 8.589878
RightHand 1.916878 0.000000 -33.183054
RightHandThumb1 -24.326973 -0.000000 -32.862282
LeftShoulder -19.163679 38.643282 -1.840518
LeftArm 44.781145 23.239429 -57.900851
LeftForeArm 16.051707 0.000000 30.542153
LeftHand -13.321738 -0.000000 -9.271507
LeftHandThumb1 -26.253704 0.000000 33.147579
Head 5.026186 -0.904084 5.529782
1379
root 2.635599 37.007081 2.358124 0.060046 0.796486 1.715623
RightUpLeg 8.108296 -7.700307 -2.717666
RightLeg -4.225788 -0.000000 0.000000
RightFoot -14.314064 -17.543960 16.298131
RightToeBase 14.145082 -0.000000 -0.000000
LeftUpLeg 4.939533 -1.511601 1.762948
LeftLeg -1.629263 -0.000000 0.000000
LeftFoot -9.647168 12.248870 -16.687231
LeftToeBase 9.523755 -0.000000 -0.000000
Spine 0.433691 3.553479 0.216662
RightShoulder 8.313205 -24.766826 -8.045004
RightArm 24.825751 -6.815581 81.702126
RightForeArm 102.168586 -0.000000 8.846094
RightHand 2.038605 -0.000000 -33.093905
RightHandThumb1 -24.326973 -0.000000 -32.862282
LeftShoulder -19.102282 38.563039 -1.802807
LeftArm 44.985142 23.593343 -57.343659
LeftForeArm 16.429074 -0.000000 30.324883
LeftHand -13.165879 0.000000 -9.874491
LeftHandThumb1 -26.253704 0.000000 33.147579
Head 5.023198 -0.918048 5.546283
1380
root 2.638733 37.006290 2.362893 0.028111 0.731635 1.712242
RightUpLeg 8.160185 -7.798388 -2.742063
RightLeg -4.270898 -0.000000 0.000000
RightFoot -14.248521 -17.409878 16.246706
RightToeBase 14.152997 -0.000000 -0.000000
LeftUpLeg 5.000944 -1.576794 1.751356
LeftLeg -1.650973 -0.000000 0.000000
LeftFoot -9.688370 12.360451 -16.698208
LeftToeBase 9.522067 -0.000000 -0.000000
Spine 0.490120 3.677503 0.256027
RightShoulder 8.264293 -24.835131 -8.025098
RightArm 24.672631 -6.555866 81.763326
RightForeArm 101.774951 -0.000000 9.119299
RightHand 2.136017 -0.000000 -33.237818
RightHandThumb1 -24.326973 -0.000000 -32.862282
LeftShoulder -19.056242 38.489296 -1.789279
LeftArm 45.197376 23.929494 -56.789035
LeftForeArm 16.962263 0.000000 30.091377
LeftHand -13.048282 -0.000000 -10.513293
LeftHandThumb1 -26.253704 0.000000 33.147579
Head 5.060655 -1.025333 5.557571
